<?xml version="1.0" encoding="utf-8"?>
<!-- Generator: Adobe Illustrator 27.5.0, SVG Export Plug-In . SVG Version: 6.00 Build 0)  -->
<svg version="1.1" xmlns="http://www.w3.org/2000/svg" xmlns:xlink="http://www.w3.org/1999/xlink" x="0px" y="0px"
	 viewBox="0 0 2000 2000" style="enable-background:new 0 0 2000 2000;" xml:space="preserve">
<g id="BACKGROUND">
	<rect style="fill:#FFFFFF;" width="2000" height="2000"/>
</g>
<g id="OBJECTS">
	<g>
		<g>
			
				<ellipse transform="matrix(0.7071 -0.7071 0.7071 0.7071 -39.0214 732.2816)" style="fill:#D2D2D2;" cx="864.431" cy="413.244" rx="136.797" ry="136.797"/>
			<polygon points="878.844,463.602 862.856,414.463 784.62,364.603 786.635,361.442 866.006,412.024 882.411,462.443 			"/>
		</g>
		<g>
			<path d="M1567.449,1033.474c-29.827,0-58.374-12.578-78.545-34.558l-53.381,23.552l34.88-51.493
				c-6.333-13.907-9.543-28.737-9.543-44.092c0-58.773,47.815-106.589,106.589-106.589s106.589,47.816,106.589,106.589
				C1674.038,985.658,1626.223,1033.474,1567.449,1033.474z M1489.873,994.388l0.908,1.016c19.509,21.81,47.451,34.32,76.667,34.32
				c56.707,0,102.839-46.134,102.839-102.841c0-56.705-46.133-102.839-102.839-102.839s-102.839,46.134-102.839,102.839
				c0,15.161,3.242,29.788,9.639,43.474l0.449,0.964l-28.755,42.45L1489.873,994.388z"/>
			<g>
				<path d="M1516.877,943.982c-8.569,0-15.542-6.973-15.542-15.542c0-8.57,6.973-15.543,15.542-15.543
					c8.569,0,15.542,6.973,15.542,15.543C1532.419,937.009,1525.447,943.982,1516.877,943.982z M1516.877,916.647
					c-6.501,0-11.792,5.291-11.792,11.793c0,6.503,5.291,11.792,11.792,11.792c6.502,0,11.792-5.289,11.792-11.792
					C1528.669,921.937,1523.379,916.647,1516.877,916.647z"/>
				<path d="M1566.079,943.982c-8.569,0-15.542-6.973-15.542-15.542c0-8.57,6.973-15.543,15.542-15.543
					c8.569,0,15.542,6.973,15.542,15.543C1581.621,937.009,1574.648,943.982,1566.079,943.982z M1566.079,916.647
					c-6.501,0-11.792,5.291-11.792,11.793c0,6.503,5.291,11.792,11.792,11.792s11.792-5.289,11.792-11.792
					C1577.871,921.937,1572.581,916.647,1566.079,916.647z"/>
				<path d="M1615.281,943.982c-8.569,0-15.542-6.973-15.542-15.542c0-8.57,6.973-15.543,15.542-15.543
					c8.572,0,15.544,6.973,15.544,15.543C1630.825,937.009,1623.853,943.982,1615.281,943.982z M1615.281,916.647
					c-6.501,0-11.792,5.291-11.792,11.793c0,6.503,5.291,11.792,11.792,11.792c6.504,0,11.794-5.289,11.794-11.792
					C1627.075,921.937,1621.785,916.647,1615.281,916.647z"/>
			</g>
		</g>
		<g>
			<g>
				<path style="fill:#FFFFFF;" d="M215.489,715v230.454c0,24.996,20.263,45.258,45.258,45.258h338.818
					c24.996,0,45.258-20.263,45.258-45.258V715H215.489z"/>
				<path style="fill:#D2D2D2;" d="M599.565,992.588H260.747c-25.989,0-47.133-21.144-47.133-47.134V713.125h433.085v232.329
					C646.699,971.444,625.555,992.588,599.565,992.588z M217.365,716.875v228.579c0,23.922,19.462,43.384,43.383,43.384h338.818
					c23.922,0,43.384-19.462,43.384-43.384V716.875H217.365z"/>
			</g>
			<g>
				<path style="fill:#D2D2D2;" d="M644.824,677.473c0-24.996-20.263-45.259-45.258-45.259H260.747
					c-24.995,0-45.258,20.263-45.258,45.259V715h429.335V677.473z"/>
				<path style="fill:#D2D2D2;" d="M646.699,716.875H213.615v-39.402c0-25.99,21.144-47.134,47.133-47.134h338.818
					c25.99,0,47.134,21.144,47.134,47.134V716.875z M217.365,713.125h425.585v-35.652c0-23.922-19.462-43.384-43.384-43.384H260.747
					c-23.921,0-43.383,19.462-43.383,43.384V713.125z"/>
			</g>
			<g>
				<rect x="264.047" y="823.976" style="fill:#599BFF;" width="30.63" height="124.706"/>
				<rect x="314.311" y="856.771" style="fill:#599BFF;" width="30.63" height="91.911"/>
				<rect x="364.577" y="878.721" style="fill:#599BFF;" width="30.63" height="69.962"/>
				<rect x="414.841" y="839.119" style="fill:#599BFF;" width="30.63" height="109.564"/>
				<rect x="465.107" y="868.603" style="fill:#599BFF;" width="30.63" height="80.079"/>
				<rect x="515.372" y="846.515" style="fill:#599BFF;" width="30.63" height="102.167"/>
				<rect x="565.636" y="804.282" style="fill:#599BFF;" width="30.63" height="144.4"/>
			</g>
			<path d="M272.5,689.857c-8.96,0-16.25-7.29-16.25-16.25c0-8.96,7.29-16.25,16.25-16.25s16.25,7.29,16.25,16.25
				C288.75,682.567,281.46,689.857,272.5,689.857z M272.5,661.107c-6.892,0-12.5,5.608-12.5,12.5c0,6.892,5.608,12.5,12.5,12.5
				s12.5-5.608,12.5-12.5C285,666.715,279.392,661.107,272.5,661.107z"/>
			<rect x="354.009" y="770.74" width="146.243" height="3.75"/>
			<rect x="215.49" y="713.125" width="429.335" height="3.75"/>
		</g>
		<g>
			<path d="M1721.357,689.968v-2.234h15.674l0.1,1.547l-0.071,0.687H1721.357z M1705.684,689.968h-15.674v-2.234h15.674V689.968z
				 M1674.338,689.968h-15.674v-2.234h15.674V689.968z M1642.991,689.968h-15.674v-2.234h15.674V689.968z M1611.643,689.968h-15.674
				v-2.234h15.674V689.968z M1580.295,689.968h-15.674v-2.234h15.674V689.968z M1548.95,689.968h-15.674v-2.234h15.674V689.968z
				 M1517.602,689.968h-15.674v-2.234h15.674V689.968z M1486.255,689.968h-15.674v-2.234h15.674V689.968z M1454.907,689.968h-15.674
				v-2.234h15.674V689.968z M1423.562,689.968h-15.674v-2.234h15.674V689.968z M1392.214,689.968h-15.674v-2.234h15.674V689.968z
				 M1360.857,689.967c-5.471-0.046-10.723-1.276-15.613-3.655l0.977-2.009c4.59,2.231,9.519,3.386,14.656,3.43L1360.857,689.967z
				 M1752.808,686.385l-0.967-2.014c4.536-2.181,8.618-5.411,11.799-9.341l1.738,1.406
				C1761.987,680.621,1757.642,684.061,1752.808,686.385z M1332.72,676.304c-3.372-4.205-5.803-9.187-7.031-14.409l2.173-0.513
				c1.155,4.901,3.435,9.577,6.602,13.523L1332.72,676.304z M1772.478,662.06l-2.173-0.52c0.627-2.618,0.945-5.32,0.945-8.027
				v-7.307h2.236v7.307C1773.486,656.396,1773.147,659.273,1772.478,662.06z M1326.956,646.04h-2.236v-15.674h2.236V646.04z
				 M1773.486,630.532h-2.236V614.86h2.236V630.532z M1326.956,614.692h-2.236v-15.674h2.236V614.692z M1773.486,599.186h-2.236
				v-15.674h2.236V599.186z M1326.956,583.346h-2.236v-15.674h2.236V583.346z M1773.486,567.838h-2.236v-15.673h2.236V567.838z
				 M1326.956,551.998h-2.236v-15.674h2.236V551.998z M1773.486,536.492h-2.236v-15.674h2.236V536.492z M1326.956,520.652h-2.236
				v-7.235c0-2.914,0.347-5.814,1.025-8.619l2.173,0.527c-0.64,2.633-0.962,5.355-0.962,8.092V520.652z M1770.325,505.48
				c-1.162-4.896-3.455-9.568-6.626-13.509l1.738-1.401c3.381,4.199,5.823,9.177,7.061,14.396L1770.325,505.48z M1334.609,491.843
				l-1.733-1.409c3.396-4.177,7.749-7.609,12.588-9.924l0.967,2.017C1341.885,484.7,1337.798,487.922,1334.609,491.843z
				 M1751.919,482.596c-4.59-2.222-9.521-3.365-14.661-3.4l0.015-2.234c5.474,0.035,10.73,1.254,15.618,3.622L1751.919,482.596z
				 M1721.592,479.196h-15.674v-2.234h15.674V479.196z M1690.247,479.196h-15.674v-2.234h15.674V479.196z M1658.899,479.196h-15.674
				v-2.234h15.674V479.196z M1627.551,479.196h-15.674v-2.234h15.674V479.196z M1596.204,479.196h-15.671v-2.234h15.671V479.196z
				 M1564.858,479.196h-15.674v-2.234h15.674V479.196z M1533.511,479.196h-15.674v-2.234h15.674V479.196z M1502.163,479.196h-15.674
				v-2.234h15.674V479.196z M1470.815,479.196h-15.671v-2.234h15.671V479.196z M1439.47,479.196h-15.674v-2.234h15.674V479.196z
				 M1408.123,479.196h-15.674v-2.234h15.674V479.196z M1376.775,479.196h-15.601l-0.073-2.234h15.674V479.196z"/>
			<g>
				<path style="fill:#FF5970;" d="M1701.522,654.979h-375.856c-19.517,0-35.338-15.821-35.338-35.338V479.544
					c0-19.517,15.821-35.338,35.338-35.338h375.856c19.517,0,35.338,15.821,35.338,35.338v140.096
					C1736.86,639.157,1721.039,654.979,1701.522,654.979z"/>
				<g>
					<path style="fill:#FFFFFF;" d="M1413.721,523.538c0,3.329-0.872,6.458-2.391,9.184c-3.218,5.653-9.273,9.474-16.245,9.474
						c-6.972,0-13.027-3.821-16.245-9.474c-1.519-2.726-2.391-5.855-2.391-9.184c0-10.279,8.335-18.636,18.636-18.636
						S1413.721,513.259,1413.721,523.538z"/>
					<path style="fill:#FFFFFF;" d="M1431.117,573.301v20.982h-72.064v-20.982c0-12.089,7.28-22.658,18.09-28.289
						c3.554,5.653,10.242,9.474,17.942,9.474c7.7,0,14.388-3.821,17.942-9.474c2.764,1.43,5.281,3.195,7.527,5.229
						C1427.07,556.14,1431.117,564.296,1431.117,573.301z"/>
				</g>
				<g>
					<g>
						<rect x="1500.816" y="488.963" style="fill:#FFFFFF;" width="38.024" height="37.773"/>
						<rect x="1567.5" y="489.293" style="fill:#FFFFFF;" width="106.865" height="4.47"/>
						<rect x="1567.5" y="521.78" style="fill:#FFFFFF;" width="56.96" height="4.47"/>
					</g>
					<g>
						<rect x="1500.816" y="572.448" style="fill:#FFFFFF;" width="38.024" height="37.773"/>
						<rect x="1567.5" y="572.778" style="fill:#FFFFFF;" width="106.865" height="4.47"/>
						<rect x="1567.5" y="605.265" style="fill:#FFFFFF;" width="76.326" height="4.47"/>
					</g>
				</g>
			</g>
		</g>
		<g>
			<g>
				<g>
					<polygon style="fill:#599BFF;" points="842.384,1496.025 826.38,1721.045 1279.028,1721.045 1276.929,1496.025 
						1077.5,1460.337 					"/>
					<polygon points="1067.9,1721.863 1064.155,1721.721 1067.368,1637.795 1008.33,1623.904 1009.19,1620.251 1071.235,1634.851 
											"/>
				</g>
				<g>
					<path d="M1161.812,1028.273c36.899-71.881,6.23-129.385-38.336-145.678c15.814-148.553-179.702-145.199-161.811-34.822
						l81.784,171.875C1043.448,1019.647,1163.25,1028.273,1161.812,1028.273z"/>
					
						<ellipse transform="matrix(0.2259 -0.9741 0.9741 0.2259 84.5714 1655.0219)" cx="1083.702" cy="774.295" rx="39.295" ry="39.295"/>
				</g>
				<g>
					<rect x="842.384" y="1338.689" style="fill:#FFD966;" width="434.545" height="157.444"/>
					<path style="fill:#FFD966;" d="M1309.153,1064.05c-17.475-36.9-52.425-62.425-92.875-67.9L1035,971.25l-159.791,35.325
						c-40.837,10.785-72.104,43.672-80.817,85l-65.369,310.091h575.856l53.262-0.169c37.819-0.12,63.898-37.948,50.559-73.336
						L1309.153,1064.05z"/>
					<g style="opacity:0.8;">
						<path style="fill:#FFFFFF;" d="M891.357,1003.005l-2.689,0.594c-6.715,29.235-22.243,56.3-44.734,76.419
							c-15.448,13.819-33.807,23.913-53.428,29.995l-0.588,2.789c20.503-6.163,39.696-16.624,55.784-31.016
							C868.842,1061.086,884.681,1033.135,891.357,1003.005z"/>
						<path style="fill:#FFFFFF;" d="M1318.87,1089.829c-26.601-1.042-52.817-10.604-73.266-27.973
							c-20.368-17.3-34.213-41.258-39.771-67.141l-2.632-0.362c5.663,27.335,20.378,52.704,42.143,70.527
							c21.042,17.231,47.561,26.63,74.474,27.467L1318.87,1089.829z"/>
						<path style="fill:#FFFFFF;" d="M951.931,1179.225c-22.57,3.986-43.653,14.984-56.317,34.575
							c-0.876,1.355,1.287,2.61,2.159,1.262c27.883-43.138,87.517-39.291,130.258-25.713
							c46.926,14.908,93.258,40.349,143.976,29.809c22.106-4.594,42.525-16.117,54.339-35.83c0.829-1.383-1.332-2.642-2.159-1.262
							c-25.959,43.318-84.814,41.727-127.124,28.926C1049.482,1196.597,1003.261,1170.158,951.931,1179.225z"/>
					</g>
					
						<rect x="1303.959" y="1241.304" transform="matrix(0.0864 -0.9963 0.9963 0.0864 -84.4858 2472.4526)" width="3.749" height="81.974"/>
					
						<rect x="1236.251" y="1107.871" transform="matrix(0.9472 -0.3205 0.3205 0.9472 -317.8832 459.8865)" width="3.748" height="175.508"/>
					
						<rect x="809.657" y="1200" transform="matrix(0.0794 -0.9968 0.9968 0.0794 -373.6523 1999.1439)" width="171.789" height="3.75"/>
					<path d="M1301.875,1311.875c2.435,38.471-8.228,78.722-35.177,88.482c-6.962,2.521-14.664-0.897-17.298-7.817
						c-6.728-17.672,2.755-44.756,16.85-55.04L1301.875,1311.875z"/>
				</g>
				<rect x="1127.416" y="1263.737" style="fill:#FFFFFF;" width="102.437" height="137.5"/>
				<g>
					<g>
						<path style="fill:#FF8F78;" d="M1079.868,889.304v105.904c0,24.344-19.743,44.087-44.087,44.087
							c-24.344,0-44.087-19.743-44.087-44.087V889.304H1079.868z"/>
						<path d="M1063.652,922.81c-19.686,29.672-43.301,51.677-71.957,63.907v-76.519L1063.652,922.81z"/>
						<path style="fill:#FF8F78;" d="M1076.675,901.45c-3.325,10.675-9.075,19.35-16.3,26.125
							c-17.9,16.825-44.925,22.1-66.775,17.325c-0.65-0.15-1.275-0.3-1.9-0.525c-12.75-3.925-20.175-18.35-24.45-34.9
							c-1.7-6.525-2.925-13.4-3.75-20.075c-2.8-21.8-1.825-41.625-1.825-41.625l13.25-36.575l46.8-17.1l50,36.75l1.6,22.75
							l1.25,18.075l1.25,17.625l0.625,9.1L1076.675,901.45z"/>
						<path d="M961.664,847.773c7.827-20.266,15.409-34.907,30.666-39.214c4.504-1.271,9.334-0.563,13.484,1.602
							c8.159,4.256,21.578,13.866,25.175,32.181c5.271,26.835,19.647,36.899,41.212,30.19c21.564-6.709,23.002-33.065,23.002-33.065
							l-4.792-34.982l-57.025-19.168l-46.004,11.501l-15.494,13.897L961.664,847.773z"/>
						
							<ellipse transform="matrix(0.3862 -0.9224 0.9224 0.3862 -142.5145 1534.3448)" style="fill:#FF8F78;" cx="1081.665" cy="874.259" rx="24.919" ry="20.305"/>
					</g>
					<path d="M1071.688,884.825c0.178-4.368,2.04-8.75,5.068-12.116c3.027-3.375,7.128-5.66,11.424-6.411l0.561,1.354
						c-3.433,2.437-6.619,4.702-9.223,7.568c-2.646,2.829-4.573,6.204-6.407,9.959L1071.688,884.825z"/>
					<g>
						<path d="M979.86,873.748c0,3.258-1.859,5.9-4.152,5.9c-2.293,0-4.152-2.641-4.152-5.9c0-3.258,1.859-5.9,4.152-5.9
							C978.001,867.848,979.86,870.49,979.86,873.748z"/>
						<ellipse cx="1002.585" cy="872" rx="4.152" ry="5.9"/>
						<path d="M989.432,881.796c-0.656,1.831-1.477,3.507-2.155,5.157c-0.657,1.631-1.262,3.295-1.293,4.656
							c-0.009,0.572,0.08,1.002,0.41,1.469c0.296,0.486,0.846,0.963,1.495,1.422c1.323,0.913,3.018,1.64,4.714,2.573l-0.358,1.421
							c-1.943,0.01-3.936-0.215-5.934-1.103c-0.995-0.444-2.004-1.099-2.846-2.122c-0.82-1.026-1.32-2.506-1.21-3.817
							c0.167-2.424,1.128-4.307,2.193-5.994c1.085-1.68,2.351-3.146,3.757-4.463L989.432,881.796z"/>
						<path d="M981.214,908.598c2.714,1.754,5.386,3.509,8.223,4.565c2.844,1.034,5.72,1.222,8.338,0.19
							c2.638-1.005,4.957-3.109,7.167-5.317c2.216-2.239,4.261-4.75,6.482-7.154l1.076,0.749c-1.508,2.928-3.27,5.714-5.37,8.353
							c-2.116,2.583-4.664,5.136-8.153,6.483c-3.492,1.361-7.562,0.909-10.644-0.696c-3.154-1.539-5.719-3.768-7.983-6.186
							L981.214,908.598z"/>
						<path d="M980.256,852.609c0.066,0.414,0.008,0.899-0.207,1.463c-1.331,3.478-6.781,4.74-10.017,5.221
							c-2.835,0.421-9.284,0.357-5.209-3.799c2.559-2.61,6.447-4.049,9.965-4.763C976.999,850.283,979.951,850.689,980.256,852.609z
							"/>
						<path d="M991.401,849.429c-0.163,0.448-0.157,0.95,0.066,1.509c1.378,3.453,9.112,3.906,13.748,3.892
							c4.061-0.012,13.463-1.118,8.199-4.844c-3.307-2.34-8.737-3.231-13.746-3.417
							C996.518,846.452,992.154,847.356,991.401,849.429z"/>
						<circle style="opacity:0.4;fill:#FF5970;" cx="1024.063" cy="887.188" r="10.312"/>
						<path style="opacity:0.4;fill:#FF5970;" d="M974.375,899.7c0,4.575-3,8.45-7.125,9.775c-1.7-6.525-2.925-13.4-3.75-20.075
							c0.175-0.025,0.375-0.025,0.55-0.025C969.75,889.375,974.375,894,974.375,899.7z"/>
					</g>
				</g>
				<g>
					<path style="fill:#FF8F78;" d="M1312.058,1301.567c0.906-14.014-22.517-24.162-32.928-27.539
						c-15.269-4.953-31.51-6.387-47.452-7.281c-5.844,0.336-13.761-1.33-16.469,8.188c-3.66,12.864,35.41,31.792,63.565,37.388
						c9.401,1.869,24.68,6.234,30.976-3.979C1311.194,1306,1311.917,1303.737,1312.058,1301.567z"/>
					<path style="fill:#FF8F78;" d="M1286.608,1361.796c13.049-17.023-11.176-33.621-66.509-50.335
						c-8.849-2.92-12.391-4.587-18.233,6.638c-5.46,10.489,28.827,35.741,51.803,46.375
						C1265.101,1369.766,1273.413,1379.01,1286.608,1361.796z"/>
					<path style="fill:#FF8F78;" d="M1266.487,1382.455c9.515-18.197-5.853-32.545-47.277-45.057
						c-33.092-1.739-1.279,36.003,22.617,47.063C1250.386,1388.422,1262.605,1389.879,1266.487,1382.455z"/>
					<path style="fill:#FF8F78;" d="M1301.984,1325.271c6.987-19.012-23.131-31.397-86.751-39.276
						c-3.983,0.255-7.363-1.058-10.231,7.008c-6.043,16.998,28.467,36.32,69.808,48.218
						C1289.337,1345.401,1293.229,1349.092,1301.984,1325.271z"/>
					
						<rect x="1245.723" y="1262.521" transform="matrix(0.3776 -0.926 0.926 0.3776 -423.8914 1962.3156)" width="4.15" height="67.93"/>
					
						<rect x="1234.006" y="1295.813" transform="matrix(0.3979 -0.9174 0.9174 0.3979 -467.2248 1929.0123)" width="4.151" height="49.333"/>
					
						<rect x="1228.913" y="1326.784" transform="matrix(0.5192 -0.8547 0.8547 0.5192 -560.9035 1700.6407)" width="4.152" height="44.077"/>
				</g>
			</g>
			<g>
				<rect x="852.617" y="1373.384" width="184.005" height="28.008"/>
				<polygon style="fill:#FF5970;" points="938.603,1401.237 668.603,1401.237 590.27,1161.237 860.27,1161.237 				"/>
			</g>
			<g>
				
					<rect x="899.931" y="708.842" transform="matrix(0.6154 -0.7882 0.7882 0.6154 -237.4801 995.6882)" width="3.376" height="64.733"/>
				
					<rect x="846.376" y="827.355" transform="matrix(0.9653 -0.2611 0.2611 0.9653 -185.9555 258.15)" width="64.734" height="3.376"/>
				
					<rect x="877.152" y="736.043" transform="matrix(0.2715 -0.9624 0.9624 0.2715 -108.2272 1412.4209)" width="3.377" height="83.312"/>
			</g>
			<g>
				<g>
					<rect x="919.436" y="1462.712" style="fill:#FFFFFF;" width="45" height="258.333"/>
					<path d="M965.686,1722.295h-47.5v-260.833h47.5V1722.295z M920.686,1719.795h42.5v-255.833h-42.5V1719.795z"/>
				</g>
				<rect x="919.436" y="1462.712" style="opacity:0.2;" width="45" height="35.735"/>
				<g>
					<rect x="876.103" y="1422.708" style="fill:#FFFFFF;" width="131.667" height="52.917"/>
					<path d="M1008.87,1476.726H875.004v-55.12h133.866V1476.726z M877.203,1474.524h129.464v-50.715H877.203V1474.524z"/>
				</g>
				<rect x="876.103" y="1422.708" style="opacity:0.2;" width="131.667" height="34.636"/>
				<g>
					<rect x="518.603" y="1401.237" style="fill:#FFFFFF;" width="846.667" height="37.93"/>
					<path d="M1366.519,1440.417H517.354v-40.43h849.165V1440.417z M519.854,1437.917h844.165v-35.43H519.854V1437.917z"/>
				</g>
			</g>
		</g>
	</g>
	
		<line style="fill:none;stroke:#000000;stroke-width:3.75;stroke-miterlimit:10;" x1="267.5" y1="1720.833" x2="1732.5" y2="1720.833"/>
</g>
</svg>
